<?xml version="1.0" encoding="utf-8"?>
<!-- Generator: Adobe Illustrator 25.3.0, SVG Export Plug-In . SVG Version: 6.00 Build 0)  -->
<svg version="1.1" id="Layer_1" xmlns="http://www.w3.org/2000/svg" xmlns:xlink="http://www.w3.org/1999/xlink" x="0px" y="0px"
	 viewBox="0 0 13.4 32.4" style="enable-background:new 0 0 13.4 32.4;" xml:space="preserve">
<style type="text/css">
	.st0{clip-path:url(#SVGID_2_);fill:#2D9CD7;}
</style>
<g>
	<defs>
		<rect id="SVGID_1_" width="13.4" height="32.4"/>
	</defs>
	<clipPath id="SVGID_2_">
		<use xlink:href="#SVGID_1_"  style="overflow:visible;"/>
	</clipPath>
	<path class="st0" d="M6.7,0c1.6,0,2.9,1.3,2.9,2.9c0,1.6-1.3,2.9-2.9,2.9c-1.6,0-2.9-1.3-2.9-2.9C3.8,1.3,5.1,0,6.7,0z"/>
	<path class="st0" d="M13.4,10.2c0-2.1-1.7-3.8-3.9-3.8H5.7H5.4H3.9C1.7,6.3,0,8,0,10.2c0,0,0,0,0,0v7.6C0,18.4,0.6,19,1.2,19
		c0.7,0,1.2-0.6,1.2-1.2v-4.5v-2.5h0.6v2.7v4.8V19v11.8c0,0.9,0.7,1.7,1.7,1.7c0.9,0,1.7-0.7,1.7-1.7V19H7v11.8
		c0,0.9,0.7,1.7,1.7,1.7c0.9,0,1.7-0.7,1.7-1.7V19v-0.7v-4.8v-2.7h0.6v2.5v4.5c0,0.7,0.6,1.2,1.2,1.2c0.7,0,1.2-0.6,1.2-1.2V10.2
		C13.4,10.2,13.4,10.2,13.4,10.2z"/>
</g>
</svg>
